<svg width="37" height="37" viewBox="0 0 37 37" fill="none" xmlns="http://www.w3.org/2000/svg">
<path d="M36.4961 18.5C36.4961 28.4412 28.4381 36.5 18.4981 36.5C8.55806 36.5 0.5 28.4412 0.5 18.5C0.5 8.55883 8.55806 0.5 18.4981 0.5C28.4381 0.5 36.4961 8.55883 36.4961 18.5Z" stroke="black"/>
<path d="M26.9376 20.3248V26.5694H23.3166V20.7411C23.3166 19.2755 22.792 18.2775 21.4805 18.2775C20.4826 18.2775 19.8839 18.9505 19.6216 19.6006C19.5246 19.8344 19.5018 20.1538 19.5018 20.4845V26.5637H15.8809C15.8809 26.5637 15.9322 16.6978 15.8809 15.677H19.5018V17.2225C19.5018 17.2225 19.4847 17.2453 19.479 17.2567H19.5018V17.2225C19.9808 16.4811 20.8419 15.4261 22.7635 15.4261C25.1471 15.4261 26.9319 16.983 26.9319 20.3248H26.9376ZM12.1003 10.4304C10.8629 10.4304 10.0532 11.2459 10.0532 12.3124C10.0532 13.3788 10.8401 14.1943 12.0547 14.1943H12.0775C13.3377 14.1943 14.1246 13.356 14.1246 12.3124C14.1018 11.2459 13.3377 10.4304 12.1003 10.4304ZM10.2642 26.5694H13.8851V15.677H10.2642V26.5694Z" fill="black"/>
</svg>
