<svg width="158" height="23" viewBox="0 0 158 23" fill="none" xmlns="http://www.w3.org/2000/svg">
<path d="M6.60938 18.3047C5.65625 18.3047 4.75781 18.168 3.91406 17.8945C3.07031 17.6133 2.35938 17.1797 1.78125 16.5938C1.20312 16.0078 0.835938 15.2461 0.679688 14.3086L3.86719 13.6758C3.9375 14.3867 4.1875 14.9258 4.61719 15.293C5.05469 15.6523 5.67578 15.832 6.48047 15.832C7.25391 15.832 7.82812 15.6797 8.20312 15.375C8.57812 15.0625 8.76562 14.6992 8.76562 14.2852C8.76562 13.918 8.61719 13.6016 8.32031 13.3359C8.03125 13.0703 7.52734 12.8828 6.80859 12.7734L5.66016 12.5859C5.20703 12.5156 4.72266 12.4219 4.20703 12.3047C3.69922 12.1797 3.21875 11.9961 2.76562 11.7539C2.3125 11.5039 1.94141 11.1602 1.65234 10.7227C1.36328 10.2852 1.21875 9.72266 1.21875 9.03516C1.21875 8.19922 1.44141 7.48438 1.88672 6.89062C2.33984 6.28906 2.96484 5.83203 3.76172 5.51953C4.55859 5.19922 5.46875 5.03906 6.49219 5.03906C7.4375 5.03906 8.30078 5.17969 9.08203 5.46094C9.86328 5.73438 10.5156 6.14062 11.0391 6.67969C11.5703 7.21094 11.9141 7.87109 12.0703 8.66016L8.88281 9.31641C8.82812 8.99609 8.72266 8.69531 8.56641 8.41406C8.41797 8.13281 8.1875 7.90625 7.875 7.73438C7.5625 7.55469 7.14062 7.46484 6.60938 7.46484C6.00781 7.46484 5.52734 7.58203 5.16797 7.81641C4.81641 8.05078 4.64062 8.37109 4.64062 8.77734C4.64062 9.07422 4.73828 9.31641 4.93359 9.50391C5.13672 9.69141 5.41016 9.84375 5.75391 9.96094C6.10547 10.0703 6.5 10.1641 6.9375 10.2422L8.25 10.4648C8.92188 10.5742 9.55859 10.7656 10.1602 11.0391C10.7695 11.3047 11.2656 11.6875 11.6484 12.1875C12.0312 12.6875 12.2227 13.3438 12.2227 14.1562C12.2227 15.0547 11.9766 15.8125 11.4844 16.4297C11 17.0469 10.332 17.5156 9.48047 17.8359C8.63672 18.1484 7.67969 18.3047 6.60938 18.3047ZM18.6211 18.3047C17.8164 18.3047 17.0742 18.1641 16.3945 17.8828C15.7148 17.5938 15.168 17.168 14.7539 16.6055C14.3477 16.043 14.1445 15.3398 14.1445 14.4961C14.1445 13.5898 14.4062 12.8203 14.9297 12.1875C15.4531 11.5547 16.2148 11.0742 17.2148 10.7461C18.2148 10.4102 19.4219 10.2422 20.8359 10.2422H22.6172L22.4062 10.5586V9.83203C22.4062 8.99609 22.2539 8.375 21.9492 7.96875C21.6445 7.55469 21.1406 7.34766 20.4375 7.34766C19.7656 7.34766 19.25 7.52734 18.8906 7.88672C18.5391 8.23828 18.3242 8.74219 18.2461 9.39844L14.6836 8.78906C14.8164 8.08594 15.1172 7.45312 15.5859 6.89062C16.0625 6.32031 16.7188 5.86719 17.5547 5.53125C18.3906 5.19531 19.418 5.02734 20.6367 5.02734C21.7539 5.02734 22.6992 5.20703 23.4727 5.56641C24.2461 5.91797 24.832 6.49219 25.2305 7.28906C25.6367 8.08594 25.8398 9.15234 25.8398 10.4883V14.7891C25.8398 15.0547 25.875 15.2305 25.9453 15.3164C26.0234 15.4023 26.1836 15.4453 26.4258 15.4453H27V18H25.3359C24.4219 18 23.7266 17.7734 23.25 17.3203C22.7812 16.8594 22.5469 16.1992 22.5469 15.3398V14.7422L23.1562 14.9766C23.0547 15.3125 22.9062 15.6719 22.7109 16.0547C22.5156 16.4375 22.2422 16.8008 21.8906 17.1445C21.5469 17.4805 21.1094 17.7578 20.5781 17.9766C20.0469 18.1953 19.3945 18.3047 18.6211 18.3047ZM19.6289 15.9141C20.1758 15.9141 20.6602 15.7891 21.082 15.5391C21.5039 15.2891 21.8359 14.9141 22.0781 14.4141C22.3203 13.9062 22.4414 13.2773 22.4414 12.5273V12.2578H20.9648C20.1289 12.2578 19.4766 12.3672 19.0078 12.5859C18.5469 12.8047 18.2227 13.0742 18.0352 13.3945C17.8477 13.707 17.7539 14.0117 17.7539 14.3086C17.7539 14.543 17.8086 14.7852 17.918 15.0352C18.0352 15.2852 18.2266 15.4961 18.4922 15.668C18.7656 15.832 19.1445 15.9141 19.6289 15.9141ZM29.3555 18V5.34375H32.7305V7.38281C33.1055 6.64844 33.6172 6.07422 34.2656 5.66016C34.9219 5.24609 35.6875 5.03906 36.5625 5.03906C37.4375 5.03906 38.1797 5.25781 38.7891 5.69531C39.3984 6.125 39.8516 6.75781 40.1484 7.59375C40.6172 6.71875 41.207 6.07422 41.918 5.66016C42.6367 5.24609 43.4023 5.03906 44.2148 5.03906C45.4961 5.03906 46.4766 5.49219 47.1562 6.39844C47.8438 7.29688 48.1875 8.58984 48.1875 10.2773V18H44.6953V10.2422C44.6953 9.76562 44.6445 9.33594 44.543 8.95312C44.4492 8.5625 44.2812 8.25391 44.0391 8.02734C43.7969 7.79297 43.4492 7.67578 42.9961 7.67578C42.457 7.67578 42.0039 7.85156 41.6367 8.20312C41.2695 8.55469 40.9883 9.03906 40.793 9.65625C40.6055 10.2656 40.5117 10.9688 40.5117 11.7656V18H37.0195V10.2422C37.0195 9.76562 36.9727 9.33203 36.8789 8.94141C36.7852 8.55078 36.6133 8.24219 36.3633 8.01562C36.1211 7.78906 35.7773 7.67578 35.332 7.67578C34.8008 7.67578 34.3477 7.85156 33.9727 8.20312C33.6055 8.54688 33.3242 9.02734 33.1289 9.64453C32.9414 10.2539 32.8477 10.9648 32.8477 11.7773V18H29.3555ZM54.8789 18.3047C54.0742 18.3047 53.332 18.1641 52.6523 17.8828C51.9727 17.5938 51.4258 17.168 51.0117 16.6055C50.6055 16.043 50.4023 15.3398 50.4023 14.4961C50.4023 13.5898 50.6641 12.8203 51.1875 12.1875C51.7109 11.5547 52.4727 11.0742 53.4727 10.7461C54.4727 10.4102 55.6797 10.2422 57.0938 10.2422H58.875L58.6641 10.5586V9.83203C58.6641 8.99609 58.5117 8.375 58.207 7.96875C57.9023 7.55469 57.3984 7.34766 56.6953 7.34766C56.0234 7.34766 55.5078 7.52734 55.1484 7.88672C54.7969 8.23828 54.582 8.74219 54.5039 9.39844L50.9414 8.78906C51.0742 8.08594 51.375 7.45312 51.8438 6.89062C52.3203 6.32031 52.9766 5.86719 53.8125 5.53125C54.6484 5.19531 55.6758 5.02734 56.8945 5.02734C58.0117 5.02734 58.957 5.20703 59.7305 5.56641C60.5039 5.91797 61.0898 6.49219 61.4883 7.28906C61.8945 8.08594 62.0977 9.15234 62.0977 10.4883V14.7891C62.0977 15.0547 62.1328 15.2305 62.2031 15.3164C62.2812 15.4023 62.4414 15.4453 62.6836 15.4453H63.2578V18H61.5938C60.6797 18 59.9844 17.7734 59.5078 17.3203C59.0391 16.8594 58.8047 16.1992 58.8047 15.3398V14.7422L59.4141 14.9766C59.3125 15.3125 59.1641 15.6719 58.9688 16.0547C58.7734 16.4375 58.5 16.8008 58.1484 17.1445C57.8047 17.4805 57.3672 17.7578 56.8359 17.9766C56.3047 18.1953 55.6523 18.3047 54.8789 18.3047ZM55.8867 15.9141C56.4336 15.9141 56.918 15.7891 57.3398 15.5391C57.7617 15.2891 58.0938 14.9141 58.3359 14.4141C58.5781 13.9062 58.6992 13.2773 58.6992 12.5273V12.2578H57.2227C56.3867 12.2578 55.7344 12.3672 55.2656 12.5859C54.8047 12.8047 54.4805 13.0742 54.293 13.3945C54.1055 13.707 54.0117 14.0117 54.0117 14.3086C54.0117 14.543 54.0664 14.7852 54.1758 15.0352C54.293 15.2852 54.4844 15.4961 54.75 15.668C55.0234 15.832 55.4023 15.9141 55.8867 15.9141ZM68.4727 18C67.5352 18 66.8125 17.7734 66.3047 17.3203C65.8047 16.8594 65.5547 16.1992 65.5547 15.3398V0.421875H69.0469V14.7891C69.0469 15.0469 69.082 15.2227 69.1523 15.3164C69.2305 15.4023 69.3906 15.4453 69.6328 15.4453H70.6055V18H68.4727ZM83.5664 18.3047C82.3242 18.3047 81.207 18.0352 80.2148 17.4961C79.2305 16.957 78.4492 16.1914 77.8711 15.1992C77.3008 14.1992 77.0156 13.0195 77.0156 11.6602C77.0156 10.3086 77.2969 9.13672 77.8594 8.14453C78.4297 7.15234 79.2031 6.38672 80.1797 5.84766C81.1641 5.30859 82.2852 5.03906 83.543 5.03906C84.2383 5.03906 84.9414 5.14453 85.6523 5.35547C86.3711 5.56641 87.0312 5.94141 87.6328 6.48047C88.2344 7.01172 88.7188 7.75781 89.0859 8.71875C89.4531 9.67188 89.6367 10.8906 89.6367 12.375H79.2539V10.3828H86.5195L86.1562 11.0039C86.0938 10.1602 85.9375 9.48047 85.6875 8.96484C85.4375 8.44922 85.1211 8.07422 84.7383 7.83984C84.3555 7.60547 83.9258 7.48828 83.4492 7.48828C82.832 7.48828 82.3164 7.66406 81.9023 8.01562C81.4883 8.36719 81.1758 8.85938 80.9648 9.49219C80.7617 10.1172 80.6602 10.8438 80.6602 11.6719C80.6602 12.9219 80.8945 13.9102 81.3633 14.6367C81.8398 15.3633 82.5664 15.7266 83.543 15.7266C84.1758 15.7266 84.7188 15.5625 85.1719 15.2344C85.6328 14.9062 85.9844 14.4062 86.2266 13.7344L89.3906 14.543C89.0938 15.418 88.6445 16.1328 88.043 16.6875C87.4414 17.2422 86.75 17.6523 85.9688 17.918C85.1953 18.1758 84.3945 18.3047 83.5664 18.3047ZM92.0977 18V5.34375H95.4727V8.26172L95.3906 7.73438C95.7734 6.89844 96.3164 6.24219 97.0195 5.76562C97.7227 5.28125 98.5703 5.03906 99.5625 5.03906C100.547 5.03906 101.352 5.26172 101.977 5.70703C102.609 6.15234 103.078 6.76953 103.383 7.55859C103.688 8.34766 103.84 9.25781 103.84 10.2891V18H100.348V10.5117C100.348 9.61328 100.199 8.91797 99.9023 8.42578C99.6055 7.92578 99.0898 7.67578 98.3555 7.67578C97.4883 7.67578 96.8086 8.04688 96.3164 8.78906C95.832 9.53125 95.5898 10.668 95.5898 12.1992V18H92.0977ZM112.676 18.3047C111.434 18.3047 110.316 18.0352 109.324 17.4961C108.34 16.957 107.559 16.1914 106.98 15.1992C106.41 14.1992 106.125 13.0195 106.125 11.6602C106.125 10.3086 106.406 9.13672 106.969 8.14453C107.539 7.15234 108.312 6.38672 109.289 5.84766C110.273 5.30859 111.395 5.03906 112.652 5.03906C113.348 5.03906 114.051 5.14453 114.762 5.35547C115.48 5.56641 116.141 5.94141 116.742 6.48047C117.344 7.01172 117.828 7.75781 118.195 8.71875C118.562 9.67188 118.746 10.8906 118.746 12.375H108.363V10.3828H115.629L115.266 11.0039C115.203 10.1602 115.047 9.48047 114.797 8.96484C114.547 8.44922 114.23 8.07422 113.848 7.83984C113.465 7.60547 113.035 7.48828 112.559 7.48828C111.941 7.48828 111.426 7.66406 111.012 8.01562C110.598 8.36719 110.285 8.85938 110.074 9.49219C109.871 10.1172 109.77 10.8438 109.77 11.6719C109.77 12.9219 110.004 13.9102 110.473 14.6367C110.949 15.3633 111.676 15.7266 112.652 15.7266C113.285 15.7266 113.828 15.5625 114.281 15.2344C114.742 14.9062 115.094 14.4062 115.336 13.7344L118.5 14.543C118.203 15.418 117.754 16.1328 117.152 16.6875C116.551 17.2422 115.859 17.6523 115.078 17.918C114.305 18.1758 113.504 18.3047 112.676 18.3047ZM121.207 18V5.34375H124.582V8.19141L124.441 7.81641C124.84 6.87891 125.402 6.18359 126.129 5.73047C126.855 5.26953 127.648 5.03906 128.508 5.03906C128.75 5.03906 128.996 5.05859 129.246 5.09766C129.496 5.13672 129.746 5.20312 129.996 5.29688L129.727 8.27344C129.219 8.13281 128.73 8.0625 128.262 8.0625C127.879 8.0625 127.477 8.12891 127.055 8.26172C126.641 8.39453 126.254 8.62891 125.895 8.96484C125.543 9.29297 125.254 9.76172 125.027 10.3711C124.809 10.9727 124.699 11.7422 124.699 12.6797V18H121.207ZM136.512 22.875C134.473 22.875 132.957 22.6055 131.965 22.0664C130.973 21.5273 130.477 20.6953 130.477 19.5703C130.477 18.875 130.652 18.3125 131.004 17.8828C131.363 17.4531 131.852 17.1367 132.469 16.9336C132.18 16.7305 131.949 16.4766 131.777 16.1719C131.613 15.8672 131.531 15.5312 131.531 15.1641C131.531 14.6875 131.68 14.2695 131.977 13.9102C132.273 13.5508 132.699 13.293 133.254 13.1367C132.637 12.7461 132.152 12.2461 131.801 11.6367C131.457 11.0195 131.285 10.3164 131.285 9.52734C131.285 8.62109 131.508 7.83203 131.953 7.16016C132.406 6.48828 133.039 5.96875 133.852 5.60156C134.664 5.22656 135.613 5.03906 136.699 5.03906C137.785 5.03906 138.734 5.22656 139.547 5.60156C140.359 5.96875 140.992 6.49219 141.445 7.17188C141.898 7.84375 142.125 8.63281 142.125 9.53906C142.125 10.4297 141.898 11.2109 141.445 11.8828C140.992 12.5547 140.355 13.0781 139.535 13.4531C138.723 13.8203 137.77 14.0039 136.676 14.0039H135.832C135.059 14.0039 134.672 14.2109 134.672 14.625C134.672 15.0234 135.059 15.2227 135.832 15.2227H138.387C139.262 15.2227 140 15.3281 140.602 15.5391C141.203 15.75 141.691 16.0352 142.066 16.3945C142.449 16.7461 142.727 17.1523 142.898 17.6133C143.078 18.0742 143.168 18.5586 143.168 19.0664C143.168 20.3477 142.66 21.3008 141.645 21.9258C140.629 22.5586 139.07 22.875 136.969 22.875H136.512ZM136.594 20.6484H137.016C138.758 20.6484 139.629 20.125 139.629 19.0781C139.629 18.6719 139.477 18.332 139.172 18.0586C138.867 17.793 138.312 17.6602 137.508 17.6602H135.844C135.359 17.6602 134.922 17.7734 134.531 18C134.141 18.2344 133.945 18.6211 133.945 19.1602C133.945 19.6602 134.16 20.0312 134.59 20.2734C135.02 20.5234 135.688 20.6484 136.594 20.6484ZM136.699 11.8125C137.379 11.8125 137.902 11.6133 138.27 11.2148C138.645 10.8164 138.832 10.2578 138.832 9.53906C138.832 8.82031 138.645 8.25781 138.27 7.85156C137.902 7.44531 137.379 7.24219 136.699 7.24219C136.027 7.24219 135.504 7.44531 135.129 7.85156C134.754 8.25 134.566 8.8125 134.566 9.53906C134.566 10.2578 134.754 10.8164 135.129 11.2148C135.504 11.6133 136.027 11.8125 136.699 11.8125ZM138.574 6.85547V5.57812C138.574 4.71875 138.824 4.0625 139.324 3.60938C139.824 3.14844 140.551 2.91797 141.504 2.91797H142.711V5.48438H141.305C141.062 5.48438 140.902 5.52734 140.824 5.61328C140.754 5.69922 140.719 5.87109 140.719 6.12891V6.85547H138.574ZM146.273 22.5703V20.0156H148.395C148.566 20.0156 148.691 19.9805 148.77 19.9102C148.855 19.8398 148.934 19.7109 149.004 19.5234L149.648 17.7539L149.449 19.0195L143.941 5.34375H147.844L151.113 15.5625L150.773 15.5156L154.031 5.34375H157.922L152.039 20.4844C151.734 21.2656 151.309 21.8086 150.762 22.1133C150.215 22.418 149.574 22.5703 148.84 22.5703H146.273Z" fill="black"/>
</svg>
